<svg xmlns="http://www.w3.org/2000/svg" width="58" height="58" viewBox="0 0 58 58">
  <g id="Group" transform="translate(2 2)">
    <path id="Path" d="M15,21H6a6,6,0,0,1-6-6V6A6,6,0,0,1,6,0h9a6,6,0,0,1,6,6v9A6,6,0,0,1,15,21Z" fill="none" stroke="#0460ba" stroke-linecap="round" stroke-linejoin="round" stroke-miterlimit="10" stroke-width="4"/>
    <path id="Path-2" data-name="Path" d="M15,21H6a6,6,0,0,1-6-6V6A6,6,0,0,1,6,0h9a6,6,0,0,1,6,6v9A6,6,0,0,1,15,21Z" transform="translate(33)" fill="none" stroke="#0460ba" stroke-linecap="round" stroke-linejoin="round" stroke-miterlimit="10" stroke-width="4"/>
    <path id="Path-3" data-name="Path" d="M15,21H6a6,6,0,0,1-6-6V6A6,6,0,0,1,6,0h9a6,6,0,0,1,6,6v9A6,6,0,0,1,15,21Z" transform="translate(0 33)" fill="none" stroke="#0460ba" stroke-linecap="round" stroke-linejoin="round" stroke-miterlimit="10" stroke-width="4"/>
    <path id="Path-4" data-name="Path" d="M1.5,0V15" transform="translate(42 36)" fill="none" stroke="#0460ba" stroke-linecap="round" stroke-linejoin="round" stroke-miterlimit="10" stroke-width="4"/>
    <path id="Path-5" data-name="Path" d="M15,1.5H0" transform="translate(36 42)" fill="none" stroke="#0460ba" stroke-linecap="round" stroke-linejoin="round" stroke-miterlimit="10" stroke-width="4"/>
  </g>
</svg>
