<svg id="attachment-link-1.1" xmlns="http://www.w3.org/2000/svg" width="69.6" height="69.6" viewBox="0 0 69.6 69.6">
  <path id="Path" d="M26.851,26.288l5.017-5.017a12.383,12.383,0,1,0-17.51-17.51L3.628,14.491a12.377,12.377,0,0,0,0,17.51l-.032.032A12.224,12.224,0,0,0,7.027,34.4" transform="translate(25.404 8.567)" fill="none" stroke="#0460ba" stroke-linecap="round" stroke-linejoin="round" stroke-miterlimit="10" stroke-width="4.35"/>
  <path id="Path-2" data-name="Path" d="M28.3,0a12.232,12.232,0,0,1,3.431,2.372,12.377,12.377,0,0,1,0,17.51l-10.73,10.73A12.383,12.383,0,0,1,3.5,13.1L8.512,8.085" transform="translate(8.833 26.66)" fill="none" stroke="#0460ba" stroke-linecap="round" stroke-linejoin="round" stroke-miterlimit="10" stroke-width="4.35"/>
  <path id="Path-3" data-name="Path" d="M0,0H69.6V69.6H0Z" fill="none"/>
</svg>
