<svg id="BinaryFortressLight" xmlns="http://www.w3.org/2000/svg" width="23.343" height="23.343" viewBox="0 0 23.343 23.343">
  <rect id="Rectangle" width="3.335" height="3.335" fill="#0460ba"/>
  <rect id="Rectangle-2" data-name="Rectangle" width="3.335" height="3.335" transform="translate(0 5.002)" fill="#0460ba"/>
  <rect id="Rectangle-3" data-name="Rectangle" width="3.335" height="3.335" transform="translate(5.002 5.002)" fill="#0460ba"/>
  <rect id="Rectangle-4" data-name="Rectangle" width="3.335" height="3.335" transform="translate(10.004 5.002)" fill="#0460ba"/>
  <rect id="Rectangle-5" data-name="Rectangle" width="3.335" height="3.335" transform="translate(15.006 5.002)" fill="#0460ba"/>
  <rect id="Rectangle-6" data-name="Rectangle" width="3.335" height="3.335" transform="translate(20.008 5.002)" fill="#0460ba"/>
  <rect id="Rectangle-7" data-name="Rectangle" width="3.335" height="3.335" transform="translate(20.008)" fill="#0460ba"/>
  <rect id="Rectangle-8" data-name="Rectangle" width="3.335" height="3.335" transform="translate(5.002 10.004)" fill="#0460ba"/>
  <rect id="Rectangle-9" data-name="Rectangle" width="3.335" height="3.335" transform="translate(5.002 15.006)" fill="#0460ba"/>
  <rect id="Rectangle-10" data-name="Rectangle" width="3.335" height="3.335" transform="translate(5.002 20.008)" fill="#0460ba"/>
  <rect id="Rectangle-11" data-name="Rectangle" width="3.335" height="3.335" transform="translate(10.004 10.004)" fill="#0460ba"/>
  <rect id="Rectangle-12" data-name="Rectangle" width="3.335" height="3.335" transform="translate(10.004 15.006)" fill="#0460ba"/>
  <rect id="Rectangle-13" data-name="Rectangle" width="3.335" height="3.335" transform="translate(15.006 10.004)" fill="#0460ba"/>
  <rect id="Rectangle-14" data-name="Rectangle" width="3.335" height="3.335" transform="translate(15.006 15.006)" fill="#0460ba"/>
  <rect id="Rectangle-15" data-name="Rectangle" width="3.335" height="3.335" transform="translate(15.006 20.008)" fill="#0460ba"/>
  <rect id="Rectangle-16" data-name="Rectangle" width="3.335" height="3.335" transform="translate(10.004 20.008)" fill="#0460ba"/>
  <rect id="Rectangle-17" data-name="Rectangle" width="3.335" height="3.335" transform="translate(10.004)" fill="#0460ba"/>
</svg>
