<svg id="Path_2" data-name="Path 2" xmlns="http://www.w3.org/2000/svg" width="74" height="56" viewBox="0 0 74 56">
  <path id="Path" d="M18.595,2.125A20.856,20.856,0,0,1,41.033,4.747a21.41,21.41,0,0,1,4.484,5.1,14.7,14.7,0,0,1,18.276,9.077,13.963,13.963,0,0,1-1.256,27.189,25.549,25.549,0,0,1-4.648.218q-6.815,0-13.63,0,11.479-6.641,22.96-13.282Q53.771,25.289,40.339,17.5q-6.4-3.706-12.8-7.409c0,1.96,0,3.921,0,5.882Q42.276,24.5,57.016,33.026c0,.012,0,.034,0,.046Q42.863,41.254,28.71,49.442C24.935,51.63,21.152,53.8,17.382,56q0-11.485,0-22.971-2.9,0-5.807,0,0,6.553,0,13.106A13.963,13.963,0,0,1,6.9,20.329a20.908,20.908,0,0,1,11.693-18.2Z" fill="#fff"/>
</svg>
