<svg xmlns="http://www.w3.org/2000/svg" width="24.37" height="23.829" viewBox="0 0 24.37 23.829">
  <g id="CheckCentral" transform="translate(0 0)">
    <path id="Path" d="M12.858,12.816l2.174,2.323a9.152,9.152,0,0,1-6.171,2.327A8.674,8.674,0,0,1,0,8.8,8.675,8.675,0,0,1,8.93,0,8.829,8.829,0,0,1,15.1,2.5L12.726,4.8a5.606,5.606,0,1,0,.132,8.011Z" transform="translate(8.831 6.363)" fill="#181818"/>
    <path id="Path-2" data-name="Path" d="M10.736,3.352A5.647,5.647,0,0,0,4.7,1.665C1.179,2.682.44,6.406,1.08,8.908a5.6,5.6,0,1,1,9.656-5.556Z" transform="translate(12.107 9.634)" fill="#c1951a"/>
    <path id="Path-3" data-name="Path" d="M10.335,4.2A5.6,5.6,0,0,1,.21,7.513C-.435,5.01.308,1.286,3.827.27A5.647,5.647,0,0,1,9.865,1.957,5.594,5.594,0,0,1,10.335,4.2Z" transform="translate(12.977 11.034)" fill="#f7c31f"/>
    <path id="Path-4" data-name="Path" d="M.1,0,0,.095" transform="translate(23.936 8.816)" fill="none" stroke="#035e7f" stroke-miterlimit="10" stroke-width="1"/>
    <path id="Path-5" data-name="Path" d="M15.023,2.554l-2.1,2.058A5.645,5.645,0,0,0,3.6,8.84a5.533,5.533,0,0,0,1.17,3.412h0a5.643,5.643,0,0,0,3.288,2.054,10.619,10.619,0,0,0,.372,3.1C3.647,17.142,0,13.721,0,8.866A8.57,8.57,0,0,1,8.9,0,8.12,8.12,0,0,1,15.023,2.554Z" transform="translate(0 0)" fill="#181818"/>
    <path id="Path-6" data-name="Path" d="M9.719,1.8A8.221,8.221,0,0,0,4.907,5.27,8.727,8.727,0,0,0,3.6,9.737,5.617,5.617,0,0,1,.307,7.683h0a5.789,5.789,0,0,1,3-7.191A5.819,5.819,0,0,1,9.719,1.8Z" transform="translate(4.467 4.573)" fill="#06b247"/>
    <path id="Path-7" data-name="Path" d="M10.68,3.1c-.034.009-.068.013-.1.021a5.82,5.82,0,0,0-6.41-1.311,5.8,5.8,0,0,0-3,7.2A5.533,5.533,0,0,1,0,5.59,5.645,5.645,0,0,1,9.322,1.362,5.553,5.553,0,0,1,10.68,3.1Z" transform="translate(3.604 3.254)" fill="#057c30"/>
  </g>
</svg>
