<svg width="28" height="27" viewBox="0 0 28 27" fill="none" xmlns="http://www.w3.org/2000/svg">
<g filter="url(#filter0_d)">
<path fill-rule="evenodd" clip-rule="evenodd" d="M0.789577 0H23.2078C23.6378 0.0833876 23.9974 0.463844 24 0.912052V25.772C23.9974 26.2202 23.6378 26.6007 23.2104 26.684H0.792182C0.362215 26.6007 0.00260586 26.2202 0 25.772V0.912052C0.00260586 0.466449 0.362215 0.0833876 0.789577 0ZM11.8645 0.896417C11.544 0.948534 11.2886 1.19349 11.2235 1.5114C11.1401 1.87101 11.3564 2.26971 11.7055 2.39739C12.0078 2.51466 12.3492 2.43388 12.5681 2.19414C12.8365 1.9127 12.8365 1.42541 12.5681 1.14397C12.3883 0.948534 12.1251 0.857329 11.8645 0.896417ZM1.43322 2.39739C1.4228 1.94919 1.7798 1.53225 2.2228 1.46971C3.00847 1.45295 3.79414 1.45559 4.5798 1.45822C5.01629 1.45968 5.45277 1.46114 5.88925 1.45928C5.88925 1.55659 5.88867 1.6539 5.88809 1.75127C5.88654 2.0111 5.88498 2.27131 5.89446 2.5329C5.92313 3.00195 6.3557 3.40065 6.82736 3.39023H17.1466C17.6182 3.40065 18.0508 3.00195 18.0795 2.5329C18.0868 2.283 18.0851 2.0331 18.0835 1.7832C18.0828 1.6761 18.0821 1.56899 18.0821 1.46189C19.2547 1.45928 20.43 1.45928 21.6026 1.46189C22.0951 1.46189 22.5277 1.90489 22.5147 2.39739V24.1303C22.5277 24.6515 22.043 25.1075 21.5244 25.0684H2.39739C1.88665 25.0945 1.4202 24.641 1.43322 24.1303V2.39739Z" fill="#0460BA"/>
<path d="M11.9401 4.82345L11.9844 4.81824C11.9844 5.80847 11.974 6.79869 11.9896 7.78632C12.8652 7.83322 13.7459 7.94788 14.585 8.21889C16.0704 8.68273 17.3915 9.67817 18.1994 11.0124C18.8456 12.0756 19.1297 13.3316 19.127 14.5668C19.127 15.0801 19.1297 15.5935 19.127 16.1068C18.9994 16.1199 18.8691 16.1173 18.7414 16.1042C18.2906 15.4085 17.8893 14.6762 17.3863 14.0143C16.8287 13.2743 16.1694 12.5785 15.3303 12.1616C14.9238 11.9687 14.5042 11.8046 14.0743 11.6691C13.3994 11.4658 12.6932 11.3772 11.9896 11.3642C11.9713 12.2814 11.987 13.2039 11.9818 14.1238C11.9844 14.1733 11.9687 14.2436 12.0235 14.2697C14.3818 15.8384 16.7375 17.4072 19.0932 18.9811C19.0932 18.9889 19.0906 19.0072 19.0906 19.015C16.7192 20.5863 14.3505 22.1655 11.987 23.7472L11.9635 23.7394C11.9635 22.7492 11.974 21.759 11.9583 20.7713C11.0827 20.7244 10.202 20.6098 9.36288 20.3388C7.87754 19.8749 6.55637 18.8795 5.74855 17.5453C5.10229 16.4821 4.81825 15.2261 4.82086 13.9909C4.82086 13.4775 4.81825 12.9642 4.82086 12.4508C4.94855 12.4378 5.07884 12.4404 5.20653 12.4534C5.65474 13.144 6.05083 13.871 6.55115 14.5277C7.11141 15.273 7.7733 15.9739 8.6176 16.3961C9.02412 16.5889 9.44366 16.7531 9.87363 16.8886C10.5485 17.0919 11.2547 17.1805 11.9583 17.1935C11.9766 16.2762 11.9609 15.3537 11.9661 14.4339C11.9635 14.3844 11.9792 14.3166 11.9244 14.2906C9.56614 12.7244 7.21044 11.1531 4.85474 9.58176C4.85474 9.57394 4.85734 9.5557 4.85734 9.54788C7.22086 7.97654 9.58438 6.4026 11.9401 4.82345Z" fill="#0460BA"/>
<path d="M11.8645 0.896398C12.1251 0.854705 12.3883 0.94591 12.5655 1.14135C12.8365 1.42278 12.8339 1.91008 12.5655 2.19151C12.3466 2.43125 12.0052 2.51203 11.7029 2.39477C11.3563 2.26708 11.1401 1.87099 11.2208 1.50878C11.2886 1.19086 11.544 0.948516 11.8645 0.896398Z" fill="white"/>
<path fill-rule="evenodd" clip-rule="evenodd" d="M4.58244 1.4608C3.79677 1.45817 3.0111 1.45554 2.22543 1.47229C1.77983 1.53483 1.42283 1.94916 1.43325 2.39998V24.1329C1.42022 24.6436 1.88667 25.097 2.39742 25.071H21.5218C22.0404 25.1101 22.5277 24.654 22.5121 24.1329V2.39737C22.5225 1.90747 22.0925 1.46187 21.6 1.46187H18.0821C18.0821 1.56897 18.0828 1.67607 18.0835 1.78318C18.0852 2.03308 18.0868 2.28298 18.0795 2.53288C18.0508 3.00193 17.6183 3.40063 17.1466 3.3902H6.82739C6.35573 3.40063 5.92315 3.00193 5.89449 2.53288C5.88718 2.28271 5.88884 2.03127 5.89048 1.78124C5.89118 1.67446 5.89188 1.56793 5.89188 1.46187C5.4554 1.46373 5.01892 1.46226 4.58244 1.4608ZM6.43164 8.49851C8.26849 7.27424 10.1059 6.04962 11.9401 4.82343L11.987 4.81822C11.987 5.10119 11.9861 5.38416 11.9853 5.66707C11.9832 6.37418 11.981 7.0809 11.9922 7.7863C12.8704 7.8332 13.7486 7.94786 14.5876 8.21887C16.0704 8.68271 17.3916 9.68076 18.202 11.0124C18.8482 12.0755 19.1323 13.329 19.1297 14.5668C19.1297 14.7379 19.13 14.909 19.1302 15.0801C19.1308 15.4223 19.1314 15.7646 19.1297 16.1068C19.002 16.1172 18.8717 16.1172 18.744 16.1042C18.5944 15.8734 18.4503 15.6385 18.3061 15.4035C18.0157 14.9303 17.725 14.4566 17.389 14.0143C16.8313 13.2769 16.172 12.5811 15.3329 12.1615C14.9264 11.9687 14.5069 11.8045 14.0769 11.669C13.402 11.4658 12.6958 11.3798 11.9922 11.3641C11.9809 11.9336 11.9826 12.503 11.9843 13.0725C11.9853 13.4229 11.9864 13.7733 11.9844 14.1238C11.9849 14.1339 11.9847 14.1448 11.9845 14.1561C11.9835 14.2001 11.9825 14.2489 12.0261 14.2697C14.3818 15.8436 16.7375 17.4124 19.0958 18.9811C19.0958 18.985 19.0951 18.9915 19.0945 18.998C19.0938 19.0045 19.0932 19.0111 19.0932 19.015C17.4013 20.141 15.7108 21.2684 14.0197 22.3961C13.3431 22.8473 12.6665 23.2986 11.9896 23.7498L11.9661 23.742C11.9661 23.459 11.967 23.176 11.9679 22.8931C11.97 22.186 11.9721 21.4793 11.9609 20.7739C11.0828 20.727 10.2046 20.6124 9.3655 20.3413C7.88276 19.8775 6.56159 18.8795 5.75117 17.5479C5.10491 16.4847 4.82087 15.2312 4.82348 13.9935C4.82348 13.8223 4.82319 13.6512 4.8229 13.4801C4.82232 13.1379 4.82174 12.7956 4.82348 12.4534C4.95117 12.443 5.08146 12.443 5.20915 12.456C5.35514 12.6823 5.4961 12.9124 5.63715 13.1427C5.92663 13.6154 6.21651 14.0887 6.55117 14.5303C7.11143 15.2755 7.77332 15.9765 8.61761 16.3987C9.02413 16.5915 9.44367 16.7557 9.87364 16.8912C10.5486 17.0944 11.2547 17.1804 11.9583 17.1961C11.9696 16.6266 11.9679 16.0572 11.9662 15.4877C11.9652 15.1373 11.9642 14.7869 11.9661 14.4365C11.9656 14.4269 11.9658 14.4164 11.9661 14.4055C11.967 14.3627 11.968 14.3139 11.9245 14.2931C9.56876 12.7192 7.21305 11.1505 4.85475 9.58174C4.85475 9.57783 4.8554 9.57131 4.85605 9.5648C4.8567 9.55828 4.85735 9.55177 4.85735 9.54786C5.38202 9.19808 5.90681 8.84831 6.43164 8.49851Z" fill="white"/>
</g>
<defs>
<filter id="filter0_d" x="-4" y="0" width="32" height="34.684" filterUnits="userSpaceOnUse" color-interpolation-filters="sRGB">
<feFlood flood-opacity="0" result="BackgroundImageFix"/>
<feColorMatrix in="SourceAlpha" type="matrix" values="0 0 0 0 0 0 0 0 0 0 0 0 0 0 0 0 0 0 127 0"/>
<feOffset dy="4"/>
<feGaussianBlur stdDeviation="2"/>
<feColorMatrix type="matrix" values="0 0 0 0 0 0 0 0 0 0 0 0 0 0 0 0 0 0 0.25 0"/>
<feBlend mode="normal" in2="BackgroundImageFix" result="effect1_dropShadow"/>
<feBlend mode="normal" in="SourceGraphic" in2="effect1_dropShadow" result="shape"/>
</filter>
</defs>
</svg>
