<svg width="24" height="24" viewBox="0 0 24 24" fill="none" xmlns="http://www.w3.org/2000/svg">
<path d="M14.3442 16.4448L16.4423 14.3467C16.7594 14.0296 17.2719 14.0296 17.5915 14.3467L23.7488 20.504C24.0659 20.8211 24.0659 21.3362 23.7488 21.6533L21.6507 23.7514C21.3336 24.0685 20.8186 24.0685 20.5015 23.7514L14.3442 17.5916C14.0296 17.2744 14.0296 16.762 14.3442 16.4448Z" fill="#F7C31F"/>
<path d="M8.08796 1.56787C11.688 1.56787 14.608 4.48796 14.608 8.08796C14.608 11.688 11.688 14.608 8.08796 14.608C4.48796 14.608 1.56787 11.688 1.56787 8.08796C1.56787 4.48796 4.48796 1.56787 8.08796 1.56787Z" fill="white"/>
<path fill-rule="evenodd" clip-rule="evenodd" d="M16.2063 8.10317C16.2063 3.62791 12.5784 0 8.10317 0C3.62791 0 0 3.62791 0 8.10317C0 12.5784 3.62791 16.2063 8.10317 16.2063C9.85624 16.2089 11.5636 15.6406 12.9641 14.5877L14.0093 15.633L15.633 14.0093L14.5877 12.9641C15.6406 11.5636 16.2089 9.85624 16.2063 8.10317ZM1.62114 8.10317C1.62114 4.52347 4.52347 1.62114 8.10317 1.62114C11.6829 1.62114 14.5852 4.52347 14.5852 8.10317C14.5852 11.6829 11.6829 14.5852 8.10317 14.5852C4.52347 14.5852 1.62114 11.6829 1.62114 8.10317Z" fill="#0460BA"/>
</svg>
