<svg id="download-loading-arrow-down" xmlns="http://www.w3.org/2000/svg" width="72" height="72" viewBox="0 0 72 72">
  <path id="Path" d="M0,0H72V72H0Z" fill="none"/>
  <path id="Path-2" data-name="Path" d="M0,0A27,27,0,0,1,27,27,27,27,0,0,1,0,54H0" transform="translate(36 9)" fill="none" stroke="#0460ba" stroke-linecap="round" stroke-linejoin="round" stroke-miterlimit="10" stroke-width="4"/>
  <path id="Path-3" data-name="Path" d="M8.124,4.671A26.964,26.964,0,0,1,0,0" transform="translate(18.651 56.676)" fill="none" stroke="#0460ba" stroke-linecap="round" stroke-linejoin="round" stroke-miterlimit="10" stroke-width="4"/>
  <path id="Path-4" data-name="Path" d="M0,4.671A26.838,26.838,0,0,1,8.124,0" transform="translate(18.651 10.653)" fill="none" stroke="#0460ba" stroke-linecap="round" stroke-linejoin="round" stroke-miterlimit="10" stroke-width="4"/>
  <path id="Path-5" data-name="Path" d="M0,8.814A26.9,26.9,0,0,1,3.2,0" transform="translate(9.432 22.5)" fill="none" stroke="#0460ba" stroke-linecap="round" stroke-linejoin="round" stroke-miterlimit="10" stroke-width="4"/>
  <path id="Path-6" data-name="Path" d="M0,0A26.916,26.916,0,0,0,3.2,8.817" transform="translate(9.432 40.683)" fill="none" stroke="#0460ba" stroke-linecap="round" stroke-linejoin="round" stroke-miterlimit="10" stroke-width="4"/>
  <path id="Path-7" data-name="Path" d="M1.5,24V0" transform="translate(34.5 24)" fill="none" stroke="#0460ba" stroke-linecap="round" stroke-linejoin="round" stroke-miterlimit="10" stroke-width="4"/>
  <path id="Path-8" data-name="Path" d="M18,0,9,9,0,0" transform="translate(27 39)" fill="none" stroke="#0460ba" stroke-linecap="round" stroke-linejoin="round" stroke-miterlimit="10" stroke-width="4"/>
</svg>
