<svg xmlns="http://www.w3.org/2000/svg" width="58.081" height="58" viewBox="0 0 58.081 58">
  <g id="Group" transform="translate(1.041 2)">
    <path id="Path" d="M26.985,0A26.99,26.99,0,0,1,0,26.688" transform="translate(28.033 27.312)" fill="none" stroke="#0460ba" stroke-linecap="round" stroke-linejoin="round" stroke-miterlimit="10" stroke-width="4"/>
    <path id="Path-2" data-name="Path" d="M0,7.17,7.569,8.292,7.17,0" transform="translate(46.744 7.983)" fill="none" stroke="#0460ba" stroke-linecap="round" stroke-linejoin="round" stroke-miterlimit="10" stroke-width="4"/>
    <path id="Path-3" data-name="Path" d="M13.62,13.647A27.059,27.059,0,0,0,0,0" transform="translate(38.995 2.376)" fill="none" stroke="#0460ba" stroke-linecap="round" stroke-linejoin="round" stroke-miterlimit="10" stroke-width="4"/>
    <path id="Path-4" data-name="Path" d="M0,26.688A26.99,26.99,0,0,1,26.985,0" transform="translate(0.982)" fill="none" stroke="#0460ba" stroke-linecap="round" stroke-linejoin="round" stroke-miterlimit="10" stroke-width="4"/>
    <path id="Path-5" data-name="Path" d="M7.569,1.122,0,0,.4,8.292" transform="translate(1.687 37.725)" fill="none" stroke="#0460ba" stroke-linecap="round" stroke-linejoin="round" stroke-miterlimit="10" stroke-width="4"/>
    <path id="Path-6" data-name="Path" d="M0,0A27.059,27.059,0,0,0,13.62,13.647" transform="translate(3.385 37.977)" fill="none" stroke="#0460ba" stroke-linecap="round" stroke-linejoin="round" stroke-miterlimit="10" stroke-width="4"/>
    <path id="Path-7" data-name="Path" d="M1.5,0V21.4" transform="translate(26.485 16.302)" fill="none" stroke="#0460ba" stroke-linecap="round" stroke-linejoin="round" stroke-miterlimit="10" stroke-width="4"/>
    <path id="Path-8" data-name="Path" d="M0,1.5H21.408" transform="translate(17.296 25.5)" fill="none" stroke="#0460ba" stroke-linecap="round" stroke-linejoin="round" stroke-miterlimit="10" stroke-width="4"/>
  </g>
</svg>
