<svg id="Group_9" data-name="Group 9" xmlns="http://www.w3.org/2000/svg" width="51" height="51" viewBox="0 0 51 51">
  <circle id="Oval" cx="25.5" cy="25.5" r="25.5" fill="rgba(4,96,186,0.05)"/>
  <g id="tools-settings" transform="translate(10 10)">
    <g id="Group" transform="translate(3.6 2.6)">
      <path id="Path" d="M0,3.9l6.5,6.5a2.759,2.759,0,0,0,3.9,0h0a2.759,2.759,0,0,0,0-3.9L3.9,0" transform="translate(11.786 13)" fill="none" stroke="#92bae1" stroke-linecap="round" stroke-linejoin="round" stroke-miterlimit="10" stroke-width="1.95"/>
      <path id="Path-2" data-name="Path" d="M0,0,4.55,4.55" transform="translate(5.292 6.5)" fill="none" stroke="#92bae1" stroke-linecap="round" stroke-linejoin="round" stroke-miterlimit="10" stroke-width="1.95"/>
      <path id="Path-3" data-name="Path" d="M23.013,4.13a.248.248,0,0,1,.066.11,5.926,5.926,0,0,1-7.474,7.391L4.754,22.482A2.8,2.8,0,0,1,.88,22.6a2.759,2.759,0,0,1-.073-3.97l10.9-10.9A5.926,5.926,0,0,1,19.1.257a.26.26,0,0,1,.111.066l.211.211a.26.26,0,0,1,0,.368L15.991,4.329l3.016,3.016,3.427-3.427a.26.26,0,0,1,.368,0l.211.212Z" transform="translate(0.578 0.871)" fill="none" stroke="#0460ba" stroke-linecap="round" stroke-linejoin="round" stroke-miterlimit="10" stroke-width="1.95"/>
      <path id="Path-4" data-name="Path" d="M.033,1.587.91,4.217a1.3,1.3,0,0,0,1.234.889H5.106V2.143A1.3,1.3,0,0,0,4.217.91L1.587.033A.65.65,0,0,0,.921.191L.191.921a.65.65,0,0,0-.157.666Z" transform="translate(0.179 1.394)" fill="none" stroke="#92bae1" stroke-linecap="round" stroke-linejoin="round" stroke-miterlimit="10" stroke-width="1.95"/>
    </g>
    <path id="Path-5" data-name="Path" d="M0,0H31.2V31.2H0Z" fill="none"/>
  </g>
</svg>
