<svg id="clap-applause-hands" xmlns="http://www.w3.org/2000/svg" width="72" height="72" viewBox="0 0 72 72">
  <path id="Path" d="M0,0H72V72H0Z" fill="none"/>
  <path id="Path-2" data-name="Path" d="M3.24,0,0,3.24" transform="translate(48.93 5.28)" fill="none" stroke="#0460ba" stroke-linecap="round" stroke-linejoin="round" stroke-miterlimit="10" stroke-width="3.5"/>
  <path id="Path-3" data-name="Path" d="M0,0,3,3" transform="translate(24.93 5.28)" fill="none" stroke="#0460ba" stroke-linecap="round" stroke-linejoin="round" stroke-miterlimit="10" stroke-width="3.5"/>
  <path id="Path-4" data-name="Path" d="M1.5,0V4.23" transform="translate(37.05 3)" fill="none" stroke="#0460ba" stroke-linecap="round" stroke-linejoin="round" stroke-miterlimit="10" stroke-width="3.5"/>
  <path id="Path-5" data-name="Path" d="M0,47.91a21.426,21.426,0,0,0,17.778-6.123h0a21.505,21.505,0,0,0,5.88-19.416L19.932,3.747A4.662,4.662,0,0,0,15.36,0h0A4.663,4.663,0,0,0,10.7,4.662V9.111" transform="translate(43.746 19.725)" fill="none" stroke="#0460ba" stroke-linecap="round" stroke-linejoin="round" stroke-miterlimit="10" stroke-width="3.5"/>
  <path id="Path-6" data-name="Path" d="M13.135,6.773,7.681,1.319a4.5,4.5,0,0,0-6.363,0h0a4.5,4.5,0,0,0,0,6.363" transform="translate(32.974 17.344)" fill="none" stroke="#0460ba" stroke-linecap="round" stroke-linejoin="round" stroke-miterlimit="10" stroke-width="3.5"/>
  <path id="Path-7" data-name="Path" d="M16.169,7.681a4.5,4.5,0,0,1,0-6.363h0a4.5,4.5,0,0,1,6.363,0L34.2,12.986l6.363,6.363V11.281A4.663,4.663,0,0,1,45.223,6.62h0A4.662,4.662,0,0,1,49.8,10.366l3.357,16.791a21.489,21.489,0,0,1-5.88,19.416h0a21.5,21.5,0,0,1-30.4,0L8.743,38.44,1.319,31.015a4.5,4.5,0,0,1,0-6.363h0a4.5,4.5,0,0,1,6.363,0" transform="translate(4.177 16.129)" fill="none" stroke="#0460ba" stroke-linecap="round" stroke-linejoin="round" stroke-miterlimit="10" stroke-width="3.5"/>
  <path id="Path-8" data-name="Path" d="M15.106,21.469,1.319,7.681a4.5,4.5,0,0,1,0-6.363h0a4.5,4.5,0,0,1,6.363,0" transform="translate(6.301 28.858)" fill="none" stroke="#0460ba" stroke-linecap="round" stroke-linejoin="round" stroke-miterlimit="10" stroke-width="3.5"/>
  <path id="Path-9" data-name="Path" d="M19.348,25.712,1.319,7.681a4.5,4.5,0,0,1,0-6.363h0a4.5,4.5,0,0,1,6.363,0l18.03,18.03" transform="translate(8.422 18.25)" fill="none" stroke="#0460ba" stroke-linecap="round" stroke-linejoin="round" stroke-miterlimit="10" stroke-width="3.5"/>
</svg>
