<svg xmlns="http://www.w3.org/2000/svg" width="23.93" height="21.765" viewBox="0 0 23.93 21.765">
  <g id="VoiceBot" transform="translate(-0.018 0)">
    <g id="Group" transform="translate(0.018)">
      <path id="Shape" d="M13.08,21.765h-2.29a.75.75,0,0,1-.461-.154,1.9,1.9,0,0,1-.652-.9,9.62,9.62,0,0,1-3.049-1.169,10.308,10.308,0,0,1-4.594-5.713H1.266A1.272,1.272,0,0,1,0,12.559v-4.1A1.252,1.252,0,0,1,1.247,7.2H2.02A9.291,9.291,0,0,1,3.332,4.52,10.457,10.457,0,0,1,8.7.5,10.819,10.819,0,0,1,12,0a10.019,10.019,0,0,1,6.334,2.158,10.514,10.514,0,0,1,3.428,5.009h.746A1.5,1.5,0,0,1,23.93,8.557l0,3.834v.051a1.384,1.384,0,0,1-1.382,1.383H20.33a9.129,9.129,0,0,1-3.914,4.537H13.91a.052.052,0,0,1,.01.012,1.106,1.106,0,0,1,.274.507v1.613a1.174,1.174,0,0,1-.234.71,1.678,1.678,0,0,1-.53.476A.8.8,0,0,1,13.08,21.765ZM1.189,7.862a.531.531,0,0,0-.53.53v4.182a.531.531,0,0,0,.53.53l1.321.026a10.324,10.324,0,0,0,1.563,3.077,9.889,9.889,0,0,0,6.28,3.958v.34a.564.564,0,0,0,.563.563H12.9a.56.56,0,0,0,.563-.556V19.065a.56.56,0,0,0-.563-.556H10.917a.56.56,0,0,0-.563.556v.377A9.029,9.029,0,0,1,5,16.374,9.062,9.062,0,1,1,20.93,10.485a9.217,9.217,0,0,1-.377,2.609H22.6a.553.553,0,0,0,.556-.549V8.419a.557.557,0,0,0-.556-.556H21.249A10.048,10.048,0,0,0,19.43,4.283,9.517,9.517,0,0,0,11.6.7l-.232,0a9.547,9.547,0,0,0-4.6,1.483A9.806,9.806,0,0,0,2.553,7.862Zm6.15-4.354A8.421,8.421,0,0,0,4.727,6.275,8.368,8.368,0,0,0,7.745,17.7h8.311a8.356,8.356,0,0,0,.4-14.2H7.339Z" transform="translate(0 0)" fill="#fff"/>
    </g>
    <g id="Group-2" data-name="Group" transform="translate(0.677 0.704)">
      <path id="Path" d="M22.5,7.714v4.12a.556.556,0,0,1-.556.556H19.9a9.255,9.255,0,0,0,.377-2.609A9.04,9.04,0,1,0,9.7,18.737V18.36a.56.56,0,0,1,.563-.556h1.983a.56.56,0,0,1,.563.556v1.449a.56.56,0,0,1-.563.556H10.259A.564.564,0,0,1,9.7,19.8v-.34a10.276,10.276,0,0,1-7.844-7.035L.53,12.4A.531.531,0,0,1,0,11.87V7.689a.531.531,0,0,1,.53-.53H1.9A9.772,9.772,0,0,1,10.716,0a9.66,9.66,0,0,1,9.878,7.156h1.354a.555.555,0,0,1,.552.556Z" transform="translate(0 0)" fill="#58585a"/>
    </g>
    <g id="Group-3" data-name="Group" transform="translate(3.609 3.509)">
      <path id="Path-2" data-name="Path" d="M16.619,6.973A8.35,8.35,0,0,1,12.467,14.2H4.155A8.358,8.358,0,0,1,3.748,0h9.121A8.354,8.354,0,0,1,16.619,6.973Z" transform="translate(0)" fill="#ff9833"/>
    </g>
    <g id="Group-4" data-name="Group" transform="translate(7.094 8.663)">
      <path id="Path-3" data-name="Path" d="M0,1.859A1.859,1.859,0,1,1,1.859,3.717,1.854,1.854,0,0,1,0,1.859Z" fill="#fff"/>
    </g>
    <g id="Group-5" data-name="Group" transform="translate(13.039 8.663)">
      <path id="Path-4" data-name="Path" d="M0,1.859A1.859,1.859,0,1,1,1.859,3.717,1.854,1.854,0,0,1,0,1.859Z" fill="#fff"/>
    </g>
  </g>
</svg>
